<svg width="512" height="512" viewBox="0 0 512 512" fill="none" xmlns="http://www.w3.org/2000/svg">
<rect width="512" height="512" rx="3" fill="#1D1E1F"/>
<path d="M445.349 303.095C442.514 314.999 438.369 326.551 432.988 337.541C418.032 367.371 391.992 390.074 365.087 409.81C355.764 416.936 345.838 423.237 335.421 428.639C313.089 439.517 287.873 443.637 262.987 444.42C210.165 446.397 154.46 434.778 114.658 399.756C102.86 389.233 92.6584 377.046 84.3744 363.581C67.0531 334.766 58.0602 301.712 58.3947 268.094C58.7293 234.475 68.3784 201.607 86.2697 173.143C119.232 122.835 175.72 91.933 234.104 78.2538C248.473 74.7035 263.157 72.5782 277.943 71.9086C305.173 71.2553 332.159 77.18 356.611 89.1801C381.063 101.18 402.26 118.901 418.402 140.84C451.364 186.74 459.069 248.173 445.39 303.095M358.206 105.324C338.511 94.0343 315.561 89.5844 292.9 88.3072C244.157 85.5878 194.014 97.4541 153.677 124.854C113.34 152.253 83.0147 195.557 74.8566 243.723C66.6986 291.888 81.7375 344.133 116.636 378.29C140.196 401.177 170.964 415.186 203.697 417.927C213.791 418.751 225.081 418.915 232.25 426.167C236.475 429.528 241.771 431.254 247.165 431.029C318.239 435.149 389.89 392.546 419.968 328.023C450.046 263.5 436.696 181.177 387.748 129.427C379.129 119.994 369.176 111.874 358.206 105.324Z" fill="url(#paint0_linear_922_94)"/>
<path d="M164.553 335.972C164.517 340.662 162.906 345.203 159.98 348.868C157.481 353.136 154.095 356.818 150.05 359.663C148.01 361.06 145.657 361.933 143.2 362.206C140.743 362.479 138.256 362.143 135.959 361.229C133.841 360.121 132.042 358.492 130.729 356.495C129.417 354.498 128.636 352.199 128.46 349.816C128.179 345.024 129.419 340.265 132.003 336.219C133.679 333.018 136.085 330.256 139.027 328.159C141.97 326.061 145.365 324.687 148.938 324.147C152.557 323.76 156.187 324.768 159.089 326.965C161.99 329.162 163.945 332.384 164.553 335.972ZM141.562 340.628C139.749 343.801 139.173 348.868 142.634 350.228C143.459 350.436 144.319 350.467 145.157 350.317C145.995 350.168 146.792 349.843 147.495 349.363C148.867 348.689 150.076 347.725 151.036 346.537C151.997 345.348 152.687 343.964 153.058 342.482C153.363 340.98 153.062 339.419 152.221 338.137C151.379 336.856 150.066 335.96 148.567 335.642C147.053 335.748 145.599 336.27 144.363 337.149C143.127 338.029 142.158 339.233 141.562 340.628Z" fill="url(#paint1_linear_922_94)"/>
<path d="M288.165 374.625C292.855 373.214 297.895 373.521 302.38 375.49C305.638 376.076 308.569 377.835 310.62 380.434C311.428 382.302 311.683 384.363 311.354 386.371C311.026 388.38 310.127 390.252 308.766 391.765C306.034 394.747 303.475 397.884 301.102 401.159C300.156 402.532 298.783 403.555 297.196 404.069C295.61 404.583 293.898 404.559 292.326 404.002C289.194 402.792 286.565 400.555 284.869 397.657C282.331 394.047 281.043 389.706 281.202 385.296C281.284 383.053 281.975 380.874 283.202 378.994C284.429 377.114 286.144 375.604 288.165 374.625ZM299.454 387.974C299.351 387.356 299.065 386.783 298.633 386.329C298.201 385.875 297.643 385.561 297.03 385.428C296.418 385.295 295.78 385.349 295.198 385.582C294.617 385.816 294.118 386.219 293.768 386.738C294.354 387.961 295.323 388.96 296.529 389.581C296.833 389.711 297.163 389.769 297.493 389.75C297.823 389.732 298.144 389.637 298.432 389.473C298.719 389.31 298.964 389.082 299.149 388.807C299.334 388.533 299.452 388.22 299.495 387.892L299.454 387.974Z" fill="url(#paint2_linear_922_94)"/>
<path d="M388.326 265.849C386.534 264.539 385.101 262.8 384.157 260.791C383.214 258.782 382.792 256.568 382.929 254.353C383.724 250.474 385.89 247.01 389.03 244.596C392.17 242.183 396.074 240.981 400.028 241.21C403.949 241.734 407.525 243.727 410.034 246.786C412.542 249.845 413.796 253.743 413.542 257.691C412.914 261.581 410.772 265.065 407.583 267.381C404.395 269.697 400.419 270.657 396.525 270.051C393.442 269.3 390.605 267.767 388.285 265.602M402.623 256.661C402.705 255.826 402.566 254.984 402.219 254.22C401.872 253.456 401.331 252.797 400.649 252.309C399.967 251.82 399.168 251.52 398.333 251.438C397.498 251.357 396.656 251.496 395.892 251.842C395.128 252.189 394.469 252.73 393.981 253.412C393.492 254.094 393.192 254.893 393.11 255.728C393.028 256.563 393.167 257.404 393.514 258.169C393.86 258.933 394.401 259.592 395.083 260.08C395.764 260.5 396.536 260.751 397.334 260.813C398.131 260.874 398.932 260.744 399.67 260.434C400.407 260.124 401.06 259.642 401.573 259.029C402.087 258.415 402.447 257.688 402.623 256.908V256.661Z" fill="url(#paint3_linear_922_94)"/>
<path d="M375.843 334.082C370.858 343.929 364.636 354.683 354.13 357.979C337.649 363.418 322.074 349.12 309.919 336.883C295.29 322.146 279.53 308.577 262.784 296.299C269.747 319.578 276.71 344.258 271.024 367.867C270.311 372.027 268.759 375.997 266.465 379.539C264.17 383.08 261.179 386.118 257.675 388.469C253.173 390.606 248.309 391.878 243.336 392.218C231.971 394.384 220.314 394.552 208.891 392.713C197.519 390.076 186.559 382.783 183.098 371.741C178.731 357.814 187.219 343.393 195.047 331.197L232.129 274.132L175.352 295.31C164.808 299.742 153.725 302.762 142.39 304.292C130.948 305.777 119.383 302.682 110.211 295.681C99.7871 286.864 95.9553 272.401 95.6669 258.599C95.2548 237.256 104.237 213.77 123.767 205.036C143.297 196.301 165.258 204.829 184.664 213.276L216.431 226.832C206.466 213.43 197.566 199.268 189.814 184.475C182.357 170.219 176.094 152.296 184.746 138.7C192.518 126.945 203.519 117.686 216.428 112.036C229.336 106.386 243.602 104.585 257.51 106.85C264.944 107.86 271.92 111.026 277.576 115.956C289.936 127.863 287.753 147.888 284.621 164.781L275.804 212.164L318.902 149.536C325.412 140.059 333.611 129.594 345.147 129.223C355.654 128.893 364.265 137.464 370.116 146.034C384.503 167.472 390.379 193.505 386.597 219.044C384.908 229.881 380.952 241.211 371.97 247.474C364.883 252.418 355.819 253.407 347.249 254.231L317.995 257.074C337.319 265.974 363.318 259.011 378.439 274.132C382.003 278.157 384.619 282.93 386.095 288.1C387.571 293.269 387.869 298.704 386.968 304.004C385.09 314.585 381.425 324.77 376.132 334.123M256.645 245.208L275.927 150.442C276.781 144.449 275.694 138.34 272.825 133.009C269.955 127.678 265.455 123.406 259.982 120.818C254.444 118.393 248.448 117.193 242.404 117.3C236.359 117.407 230.409 118.817 224.96 121.436C214.094 126.769 204.52 134.403 196.901 143.809C191.05 150.525 194.017 160.908 197.766 168.983C211.481 198.43 231.613 224.432 256.686 245.084M353.306 146.981C352.293 145.457 350.893 144.23 349.249 143.426C347.606 142.622 345.777 142.271 343.953 142.408C342.032 143.11 340.357 144.356 339.132 145.992C311.526 176.812 291.749 213.606 272.219 249.987C271.827 250.495 271.574 251.098 271.487 251.734C271.401 252.37 271.482 253.018 271.725 253.613C272.266 254.124 272.949 254.46 273.683 254.577C274.418 254.695 275.171 254.589 275.845 254.272C302.459 247.684 329.61 243.492 356.973 241.747C364.101 241.294 368.468 233.795 370.611 226.955C374.786 213.255 375.387 198.716 372.358 184.718C369.329 170.72 362.771 157.73 353.306 146.981ZM109.264 267.334C110.066 272.665 112.222 277.701 115.526 281.96C124.756 292.714 141.731 290.778 155.493 287.276C184.435 279.888 212.587 269.69 239.546 256.827C230.852 248.586 219.563 243.477 208.52 238.657L162.003 218.385C156.997 215.907 151.651 214.185 146.14 213.276C139.775 212.868 133.424 214.254 127.808 217.276C122.192 220.299 117.537 224.838 114.373 230.375C108.192 241.696 106.388 254.893 109.305 267.457M348.073 275.986C320.014 269.641 290.389 264.532 262.784 272.195C286.88 297.247 312.254 321.039 338.802 343.476C341.333 345.235 344.369 346.119 347.449 345.992C350.528 345.866 353.482 344.736 355.86 342.775C360.526 338.711 364.025 333.478 365.996 327.613C368.707 321.054 370.938 314.306 372.671 307.424C374.306 302.474 374.534 297.168 373.33 292.096C370.116 282.084 358.291 278.211 348.032 275.862M257.757 363.17C264.02 336.018 249.517 308.577 248.075 280.766C248.019 280.399 247.882 280.05 247.674 279.744C247.466 279.438 247.191 279.182 246.871 278.996C246.55 278.81 246.192 278.699 245.823 278.67C245.454 278.641 245.083 278.695 244.737 278.829C243.398 279.466 242.29 280.502 241.565 281.796C228.462 300.419 215.854 319.372 203.741 338.655C200.005 343.898 197.216 349.755 195.5 355.96C194.682 359.072 194.656 362.339 195.426 365.463C196.196 368.587 197.738 371.467 199.909 373.842C207.119 380.723 218.615 378.333 228.545 378.951C235.055 379.363 242.018 381.135 247.869 378.25C250.51 376.602 252.762 374.401 254.47 371.797C256.177 369.193 257.299 366.25 257.757 363.17Z" fill="url(#paint4_linear_922_94)"/>
<path d="M146.671 184.314C144.545 185.126 142.258 185.423 139.996 185.179C137.457 184.583 135.221 183.084 133.705 180.961C132.189 178.839 131.496 176.238 131.755 173.643C132.13 171.057 133.154 168.608 134.732 166.526C136.31 164.443 138.391 162.795 140.779 161.735C147.247 158.645 156.683 160.458 158.99 167.297C161.297 174.137 154.128 181.924 146.629 184.355M148.854 174.549C149.799 173.867 150.447 172.85 150.667 171.706C149.954 170.772 148.905 170.151 147.742 169.976C146.807 170.689 146.187 171.738 146.011 172.901C146.719 173.842 147.771 174.464 148.937 174.632L148.854 174.549Z" fill="url(#paint5_linear_922_94)"/>
<path d="M302.33 128.106C301.004 126.25 300.217 124.062 300.057 121.786C299.897 119.51 300.37 117.234 301.424 115.21C302.484 112.725 304.282 110.625 306.574 109.195C307.999 108.496 309.554 108.103 311.14 108.041C312.725 107.98 314.306 108.251 315.781 108.837C317.256 109.422 318.592 110.311 319.702 111.444C320.813 112.577 321.675 113.93 322.231 115.416C323.096 118.515 322.767 121.825 321.31 124.693C319.853 127.561 317.374 129.779 314.362 130.908C312.304 131.682 310.063 131.829 307.921 131.331C305.78 130.832 303.835 129.71 302.33 128.106Z" fill="url(#paint6_linear_922_94)"/>
<defs>
<linearGradient id="paint0_linear_922_94" x1="58.3857" y1="71.8599" x2="451.831" y2="71.8599" gradientUnits="userSpaceOnUse">
<stop stop-color="#6D7CFF"/>
<stop offset="1" stop-color="#FF51FF"/>
</linearGradient>
<linearGradient id="paint1_linear_922_94" x1="128.421" y1="324.066" x2="164.553" y2="324.066" gradientUnits="userSpaceOnUse">
<stop stop-color="#6D7CFF"/>
<stop offset="1" stop-color="#FF51FF"/>
</linearGradient>
<linearGradient id="paint2_linear_922_94" x1="281.188" y1="373.752" x2="311.494" y2="373.752" gradientUnits="userSpaceOnUse">
<stop stop-color="#6D7CFF"/>
<stop offset="1" stop-color="#FF51FF"/>
</linearGradient>
<linearGradient id="paint3_linear_922_94" x1="382.903" y1="241.182" x2="413.574" y2="241.182" gradientUnits="userSpaceOnUse">
<stop stop-color="#6D7CFF"/>
<stop offset="1" stop-color="#FF51FF"/>
</linearGradient>
<linearGradient id="paint4_linear_922_94" x1="95.6533" y1="105.899" x2="387.717" y2="105.899" gradientUnits="userSpaceOnUse">
<stop stop-color="#6D7CFF"/>
<stop offset="1" stop-color="#FF51FF"/>
</linearGradient>
<linearGradient id="paint5_linear_922_94" x1="131.702" y1="160.278" x2="159.43" y2="160.278" gradientUnits="userSpaceOnUse">
<stop stop-color="#6D7CFF"/>
<stop offset="1" stop-color="#FF51FF"/>
</linearGradient>
<linearGradient id="paint6_linear_922_94" x1="300.026" y1="108.033" x2="322.704" y2="108.033" gradientUnits="userSpaceOnUse">
<stop stop-color="#6D7CFF"/>
<stop offset="1" stop-color="#FF51FF"/>
</linearGradient>
</defs>
</svg>
