<svg width="266" height="43" viewBox="0 0 266 43" fill="none" xmlns="http://www.w3.org/2000/svg">
<path d="M51.0623 42.6723H42.2327L39.4272 10.5127L28.6191 42.6723H22.89L12.0819 10.5127L9.24693 42.6723H0.387695L3.96093 0H16.6001L25.6955 26.7846L34.9092 0H47.5483L51.0623 42.6723Z" fill="white"/>
<path d="M138.843 0H148.263L132.494 42.6716H122.749L107.068 0H116.459L127.651 32.3359L138.843 0ZM150.307 42.6716V0H159.166V42.6716H150.307ZM190.565 7.79709H174.737V17.4831H188.763V25.1905H174.737V34.8468H190.565V42.6723H165.819V0.000755556H190.565V7.79709ZM195.326 42.6716V0H210.771C224.384 0 231.117 8.5638 231.117 21.3214C231.117 34.1079 224.384 42.6716 210.771 42.6716H195.326ZM204.185 34.8461H210.327C218.182 34.8461 221.785 29.944 221.785 21.3213C221.785 12.6985 218.182 7.79649 210.327 7.79649H204.185V34.8461ZM257.968 20.1406C262.781 21.4695 266 24.6293 266 30.7124C266 37.9177 261.629 42.6722 252.623 42.6722H235.052V0.000604157H248.872C258.086 0.000604157 262.929 4.43015 262.929 11.6946C262.929 15.445 261.305 18.5165 257.968 20.1406ZM248.961 7.35409H243.586V17.3943H249.345C253.125 17.3943 254.778 15.15 254.778 12.2561C254.778 9.42122 252.918 7.35409 248.961 7.35409ZM250.969 35.0824C255.753 35.0824 257.406 32.5133 257.406 29.7374C257.406 26.9025 255.782 24.2153 250.792 24.2153H243.586V35.0824H250.969Z" fill="white"/>
<path d="M104.294 26.4688C103.97 27.8313 103.495 29.1537 102.88 30.4116C101.168 33.8262 98.1868 36.4249 95.107 38.684C94.0399 39.4998 92.9037 40.221 91.7113 40.8394C89.1551 42.0845 86.2687 42.5561 83.42 42.6457C77.3737 42.8721 70.9973 41.5421 66.4413 37.5332C65.0908 36.3286 63.9231 34.9337 62.9748 33.3923C60.9921 30.094 59.9627 26.3105 60.001 22.4623C60.0393 18.614 61.1438 14.8518 63.1918 11.5935C66.9648 5.83493 73.4309 2.2977 80.1139 0.731889C81.7587 0.325503 83.4395 0.0822235 85.1321 0.00557725C88.249 -0.0692038 91.338 0.60898 94.1369 1.98259C96.9358 3.35619 99.3621 5.38469 101.21 7.89596C104.983 13.1499 105.865 20.1819 104.299 26.4688M94.3194 3.8305C92.065 2.53823 89.438 2.02887 86.8441 1.88267C81.2647 1.57139 75.5249 2.92969 70.9077 6.06603C66.2904 9.20238 62.8192 14.1592 61.8854 19.6726C60.9515 25.1859 62.673 31.1662 66.6677 35.076C69.3645 37.6959 72.8865 39.2994 76.6333 39.6131C77.7888 39.7075 79.081 39.7263 79.9017 40.5564C80.3854 40.9411 80.9915 41.1387 81.609 41.1129C89.7446 41.5845 97.9463 36.7079 101.389 29.3221C104.832 21.9364 103.304 12.5132 97.701 6.58954C96.7145 5.5098 95.5752 4.58027 94.3194 3.8305Z" fill="url(#paint0_linear_922_81)"/>
<path d="M72.1526 30.232C72.1484 30.7688 71.964 31.2887 71.629 31.7082C71.343 32.1967 70.9554 32.6181 70.4924 32.9439C70.2588 33.1037 69.9896 33.2036 69.7083 33.2349C69.427 33.2661 69.1424 33.2277 68.8794 33.1231C68.6371 32.9963 68.431 32.8098 68.2809 32.5812C68.1307 32.3526 68.0412 32.0895 68.0211 31.8167C67.9889 31.2681 68.1309 30.7234 68.4267 30.2603C68.6184 29.8938 68.8939 29.5777 69.2307 29.3377C69.5675 29.0976 69.9561 28.9402 70.3651 28.8784C70.7793 28.8341 71.1949 28.9495 71.527 29.201C71.8592 29.4525 72.0829 29.8212 72.1526 30.232ZM69.5209 30.7649C69.3133 31.1281 69.2473 31.7082 69.6435 31.8638C69.738 31.8877 69.8364 31.8911 69.9324 31.8741C70.0283 31.857 70.1195 31.8197 70.2 31.7648C70.357 31.6877 70.4953 31.5773 70.6053 31.4413C70.7153 31.3052 70.7942 31.1469 70.8367 30.9772C70.8716 30.8053 70.8372 30.6265 70.7409 30.4799C70.6446 30.3332 70.4943 30.2306 70.3226 30.1943C70.1494 30.2064 69.9829 30.2661 69.8414 30.3668C69.6999 30.4674 69.589 30.6052 69.5209 30.7649Z" fill="url(#paint1_linear_922_81)"/>
<path d="M86.3025 34.6565C86.8394 34.4951 87.4162 34.5302 87.9296 34.7556C88.3026 34.8227 88.6381 35.024 88.8728 35.3215C88.9653 35.5354 88.9945 35.7712 88.9569 36.0012C88.9193 36.2311 88.8164 36.4453 88.6606 36.6185C88.3479 36.9599 88.055 37.3189 87.7834 37.6939C87.675 37.851 87.5179 37.9681 87.3363 38.0269C87.1547 38.0858 86.9587 38.0831 86.7788 38.0193C86.4202 37.8808 86.1193 37.6247 85.9252 37.293C85.6347 36.8797 85.4873 36.3829 85.5054 35.8781C85.5148 35.6213 85.594 35.3719 85.7344 35.1567C85.8748 34.9415 86.0712 34.7686 86.3025 34.6565ZM87.5947 36.1846C87.583 36.1139 87.5502 36.0483 87.5008 35.9963C87.4513 35.9443 87.3874 35.9084 87.3173 35.8932C87.2472 35.8779 87.1741 35.8841 87.1075 35.9108C87.041 35.9375 86.984 35.9836 86.9439 36.0431C87.0109 36.1832 87.1219 36.2974 87.2599 36.3686C87.2947 36.3834 87.3324 36.3901 87.3702 36.3879C87.408 36.3858 87.4448 36.3749 87.4777 36.3562C87.5106 36.3375 87.5387 36.3114 87.5598 36.28C87.5809 36.2486 87.5945 36.2127 87.5994 36.1752L87.5947 36.1846Z" fill="url(#paint2_linear_922_81)"/>
<path d="M97.7672 22.2054C97.5621 22.0555 97.398 21.8564 97.29 21.6264C97.1821 21.3965 97.1337 21.1431 97.1494 20.8895C97.2404 20.4454 97.4883 20.0489 97.8478 19.7727C98.2072 19.4964 98.6541 19.3588 99.1066 19.385C99.5555 19.445 99.9649 19.6731 100.252 20.0233C100.539 20.3735 100.683 20.8196 100.654 21.2715C100.582 21.7168 100.336 22.1156 99.9715 22.3807C99.6065 22.6458 99.1515 22.7557 98.7058 22.6864C98.3529 22.6003 98.028 22.4249 97.7625 22.1771M99.4038 21.1536C99.4131 21.058 99.3972 20.9617 99.3575 20.8743C99.3178 20.7868 99.2558 20.7114 99.1777 20.6555C99.0997 20.5996 99.0082 20.5652 98.9127 20.5558C98.8171 20.5465 98.7208 20.5624 98.6333 20.6021C98.5459 20.6417 98.4704 20.7037 98.4145 20.7818C98.3586 20.8599 98.3242 20.9513 98.3148 21.0468C98.3054 21.1424 98.3214 21.2388 98.361 21.3262C98.4007 21.4137 98.4626 21.4892 98.5407 21.5451C98.6187 21.5931 98.707 21.6218 98.7983 21.6289C98.8896 21.6359 98.9813 21.6211 99.0657 21.5855C99.1501 21.55 99.2248 21.4949 99.2836 21.4247C99.3424 21.3545 99.3836 21.2712 99.4038 21.1819V21.1536Z" fill="url(#paint3_linear_922_81)"/>
<path d="M96.3381 30.0158C95.7674 31.143 95.0552 32.374 93.8526 32.7513C91.9661 33.3738 90.1833 31.7373 88.792 30.3365C87.1174 28.6496 85.3134 27.0964 83.3965 25.691C84.1936 28.3557 84.9906 31.1807 84.3398 33.8832C84.2581 34.3593 84.0805 34.8138 83.8178 35.2191C83.5552 35.6245 83.2129 35.9723 82.8117 36.2413C82.2963 36.486 81.7396 36.6316 81.1704 36.6705C79.8694 36.9185 78.5352 36.9376 77.2276 36.7271C75.9259 36.4253 74.6714 35.5905 74.2752 34.3265C73.7753 32.7324 74.7468 31.0817 75.6429 29.6857L79.8876 23.1536L73.3885 25.5778C72.1816 26.0851 70.9129 26.4308 69.6155 26.6059C68.3057 26.7758 66.9819 26.4216 65.932 25.6202C64.7388 24.6109 64.3002 22.9555 64.2672 21.3755C64.22 18.9325 65.2482 16.2442 67.4837 15.2443C69.7192 14.2445 72.233 15.2207 74.4544 16.1876L78.0907 17.7393C76.95 16.2052 75.9313 14.5841 75.0439 12.8909C74.1903 11.259 73.4734 9.20745 74.4638 7.65107C75.3534 6.30559 76.6127 5.24574 78.0903 4.59897C79.5679 3.95221 81.2009 3.74608 82.7928 4.00537C83.6438 4.12096 84.4423 4.48332 85.0897 5.04767C86.5046 6.41068 86.2546 8.70281 85.8962 10.6365L84.8869 16.0602L89.8201 8.89146C90.5653 7.80671 91.5039 6.60877 92.8244 6.56632C94.0271 6.52859 95.0128 7.50958 95.6825 8.49057C97.3293 10.9446 98.002 13.9244 97.569 16.8479C97.3757 18.0883 96.9229 19.3852 95.8947 20.1021C95.0835 20.6681 94.0459 20.7813 93.0649 20.8756L89.7164 21.201C91.9283 22.2197 94.9043 21.4227 96.6352 23.1536C97.0431 23.6143 97.3426 24.1607 97.5115 24.7524C97.6805 25.3441 97.7146 25.9662 97.6115 26.5729C97.3965 27.7841 96.977 28.95 96.3711 30.0205M82.6938 19.8427L84.901 8.99522C84.9988 8.30917 84.8743 7.60986 84.5459 6.99966C84.2174 6.38946 83.7023 5.90044 83.0758 5.60419C82.4419 5.32668 81.7555 5.18933 81.0637 5.20154C80.3718 5.21375 79.6907 5.37523 79.0669 5.67494C77.8232 6.28539 76.7272 7.15927 75.8551 8.23589C75.1854 9.00465 75.525 10.1932 75.9542 11.1176C77.524 14.4882 79.8285 17.4646 82.6985 19.8286M93.7582 8.59905C93.6424 8.42456 93.4821 8.28409 93.294 8.19208C93.1058 8.10007 92.8965 8.05984 92.6876 8.07554C92.4678 8.15593 92.2761 8.29849 92.1358 8.48586C88.9759 12.0137 86.7121 16.2253 84.4766 20.3898C84.4316 20.448 84.4027 20.5169 84.3928 20.5898C84.3829 20.6626 84.3922 20.7368 84.42 20.8049C84.4819 20.8633 84.56 20.9018 84.6442 20.9152C84.7283 20.9287 84.8145 20.9165 84.8916 20.8803C87.9381 20.1262 91.0459 19.6463 94.178 19.4466C94.9939 19.3947 95.4939 18.5363 95.7391 17.7534C96.217 16.1852 96.2859 14.5209 95.9392 12.9186C95.5924 11.3163 94.8417 9.82936 93.7582 8.59905ZM65.8236 22.3754C65.9154 22.9856 66.1622 23.5621 66.5404 24.0497C67.5969 25.2806 69.54 25.059 71.1153 24.6581C74.4282 23.8125 77.6506 22.6452 80.7365 21.1727C79.7414 20.2295 78.4491 19.6446 77.1851 19.0928L71.8604 16.7724C71.2874 16.4888 70.6755 16.2917 70.0447 16.1876C69.3161 16.1408 68.5891 16.2995 67.9462 16.6455C67.3034 16.9915 66.7706 17.511 66.4084 18.1449C65.7009 19.4407 65.4944 20.9514 65.8283 22.3895M93.1593 23.3658C89.9475 22.6395 86.5564 22.0547 83.3965 22.9319C86.1548 25.7995 89.0592 28.5229 92.0981 31.0911C92.3878 31.2925 92.7354 31.3937 93.0879 31.3792C93.4404 31.3647 93.7785 31.2354 94.0507 31.0109C94.5847 30.5458 94.9852 29.9467 95.2109 29.2753C95.5212 28.5246 95.7766 27.7522 95.9749 26.9644C96.1621 26.3978 96.1882 25.7904 96.0504 25.2099C95.6825 24.0638 94.3289 23.6205 93.1546 23.3517M82.8211 33.3455C83.538 30.2375 81.8779 27.0964 81.7128 23.9129C81.7065 23.871 81.6908 23.831 81.667 23.7959C81.6431 23.7609 81.6117 23.7316 81.575 23.7104C81.5383 23.6891 81.4973 23.6763 81.4551 23.673C81.4128 23.6697 81.3703 23.6759 81.3308 23.6912C81.1775 23.7642 81.0506 23.8828 80.9676 24.0308C79.4678 26.1626 78.0246 28.3321 76.6381 30.5393C76.2105 31.1395 75.8912 31.8099 75.6948 32.5202C75.6011 32.8763 75.5981 33.2503 75.6863 33.6079C75.7745 33.9655 75.9509 34.2953 76.1994 34.567C77.0248 35.3547 78.3406 35.0811 79.4773 35.1519C80.2224 35.199 81.0195 35.4018 81.6892 35.0717C81.9916 34.883 82.2494 34.631 82.4448 34.333C82.6403 34.0349 82.7686 33.698 82.8211 33.3455Z" fill="url(#paint4_linear_922_81)"/>
<path d="M70.106 12.8724C69.8627 12.9654 69.6009 12.9993 69.3419 12.9714C69.0513 12.9031 68.7954 12.7315 68.6219 12.4886C68.4483 12.2457 68.369 11.9479 68.3987 11.6509C68.4415 11.3549 68.5588 11.0746 68.7394 10.8362C68.92 10.5979 69.1582 10.4092 69.4315 10.2879C70.172 9.93413 71.252 10.1416 71.5161 10.9246C71.7803 11.7075 70.9596 12.5988 70.1013 12.8771M70.3559 11.7546C70.464 11.6765 70.5382 11.5601 70.5635 11.4292C70.4818 11.3222 70.3617 11.2512 70.2286 11.2311C70.1216 11.3128 70.0506 11.4329 70.0305 11.566C70.1115 11.6737 70.2319 11.7449 70.3654 11.7641L70.3559 11.7546Z" fill="url(#paint5_linear_922_81)"/>
<path d="M87.9239 6.4384C87.772 6.22589 87.682 5.9755 87.6636 5.71495C87.6453 5.45439 87.6995 5.19386 87.8201 4.9622C87.9415 4.67768 88.1472 4.43731 88.4097 4.27362C88.5728 4.19363 88.7508 4.14867 88.9323 4.14161C89.1138 4.13455 89.2948 4.16556 89.4636 4.23263C89.6324 4.29971 89.7853 4.40137 89.9124 4.53108C90.0396 4.66079 90.1382 4.81568 90.2019 4.98578C90.3008 5.34047 90.2632 5.71938 90.0965 6.04769C89.9297 6.376 89.6459 6.62985 89.3011 6.75911C89.0655 6.84772 88.809 6.86455 88.5639 6.80747C88.3188 6.75039 88.0961 6.62196 87.9239 6.4384Z" fill="url(#paint6_linear_922_81)"/>
<defs>
<linearGradient id="paint0_linear_922_81" x1="60" y1="0" x2="105.036" y2="0" gradientUnits="userSpaceOnUse">
<stop stop-color="#6D7CFF"/>
<stop offset="1" stop-color="#FF51FF"/>
</linearGradient>
<linearGradient id="paint1_linear_922_81" x1="68.0166" y1="28.8691" x2="72.1526" y2="28.8691" gradientUnits="userSpaceOnUse">
<stop stop-color="#6D7CFF"/>
<stop offset="1" stop-color="#FF51FF"/>
</linearGradient>
<linearGradient id="paint2_linear_922_81" x1="85.5039" y1="34.5566" x2="88.9729" y2="34.5566" gradientUnits="userSpaceOnUse">
<stop stop-color="#6D7CFF"/>
<stop offset="1" stop-color="#FF51FF"/>
</linearGradient>
<linearGradient id="paint3_linear_922_81" x1="97.1465" y1="19.3818" x2="100.657" y2="19.3818" gradientUnits="userSpaceOnUse">
<stop stop-color="#6D7CFF"/>
<stop offset="1" stop-color="#FF51FF"/>
</linearGradient>
<linearGradient id="paint4_linear_922_81" x1="64.2656" y1="3.89648" x2="97.6972" y2="3.89648" gradientUnits="userSpaceOnUse">
<stop stop-color="#6D7CFF"/>
<stop offset="1" stop-color="#FF51FF"/>
</linearGradient>
<linearGradient id="paint5_linear_922_81" x1="68.3926" y1="10.1211" x2="71.5665" y2="10.1211" gradientUnits="userSpaceOnUse">
<stop stop-color="#6D7CFF"/>
<stop offset="1" stop-color="#FF51FF"/>
</linearGradient>
<linearGradient id="paint6_linear_922_81" x1="87.6602" y1="4.14062" x2="90.256" y2="4.14062" gradientUnits="userSpaceOnUse">
<stop stop-color="#6D7CFF"/>
<stop offset="1" stop-color="#FF51FF"/>
</linearGradient>
</defs>
</svg>
